<?xml version="1.0" standalone="no"?>
<!DOCTYPE svg PUBLIC "-//W3C//DTD SVG 20010904//EN"
 "http://www.w3.org/TR/2001/REC-SVG-20010904/DTD/svg10.dtd">
<svg version="1.0" xmlns="http://www.w3.org/2000/svg"
 width="538.000000pt" height="231.000000pt" viewBox="0 0 538.000000 231.000000"
 preserveAspectRatio="xMidYMid meet">

<g transform="translate(0.000000,231.000000) scale(0.100000,-0.100000)"
fill="#000000" stroke="none">
<path d="M772 1943 c-178 -266 -682 -1033 -682 -1038 0 -3 42 -5 94 -5 l94 0
82 130 82 130 184 0 184 0 -1 -52 c0 -29 -4 -88 -7 -130 l-8 -78 88 0 87 0 5
53 c6 46 56 728 71 957 3 47 8 100 11 118 l5 32 -105 0 -106 0 -78 -117z m79
-372 c-11 -118 -22 -216 -24 -218 -2 -2 -65 -2 -140 -1 l-136 3 157 228 c86
125 158 222 160 215 1 -7 -6 -109 -17 -227z"/>
<path d="M3631 1758 c-4 -13 -27 -75 -50 -138 -23 -63 -46 -126 -52 -139 l-10
-23 -34 35 c-44 46 -92 61 -170 54 -148 -11 -291 -156 -339 -343 -50 -192 16
-313 169 -314 59 0 64 2 198 68 4 2 3 -8 -3 -23 -5 -14 -10 -28 -10 -31 0 -2
36 -4 79 -4 74 0 80 2 87 23 7 24 246 680 288 790 l25 67 -85 0 c-79 0 -85 -2
-93 -22z m-242 -343 c42 -21 65 -77 57 -137 -21 -157 -151 -291 -250 -258 -23
7 -42 23 -51 40 -47 91 31 292 135 347 50 27 71 28 109 8z"/>
<path d="M4575 1695 c-97 -52 -101 -55 -120 -107 -20 -51 -22 -53 -64 -58 -41
-5 -44 -7 -62 -55 -10 -27 -19 -53 -19 -57 0 -4 17 -8 38 -10 l39 -3 -63 -170
c-34 -93 -66 -189 -69 -213 -15 -90 33 -132 152 -132 37 0 73 4 79 8 6 4 20
31 30 60 10 28 21 52 24 52 3 0 12 -18 22 -40 41 -99 184 -108 309 -19 l29 20
0 -35 0 -36 79 0 78 0 6 58 c3 31 19 95 35 142 17 47 44 124 61 172 19 54 31
108 31 139 0 44 -4 55 -33 84 -39 39 -89 55 -178 55 -122 0 -233 -51 -286
-131 -14 -22 -24 -41 -22 -43 2 -2 39 -6 81 -10 71 -6 78 -5 88 14 26 49 132
68 170 30 11 -11 20 -26 20 -34 0 -17 -21 -76 -27 -76 -31 0 -267 -33 -293
-41 -87 -27 -146 -96 -159 -187 l-6 -47 -55 0 c-48 0 -55 3 -57 20 -2 11 25
97 60 190 l62 170 53 3 c50 3 54 5 67 36 8 17 17 44 20 59 7 26 6 27 -39 27
-25 0 -46 4 -46 10 0 5 16 53 35 106 19 54 33 99 32 100 -1 2 -47 -21 -102
-51z m385 -510 c0 -27 -48 -112 -76 -134 -63 -50 -151 -48 -168 2 -15 41 3 79
47 101 30 14 128 38 190 45 4 1 7 -6 7 -14z"/>
<path d="M1407 1540 c-185 -47 -328 -235 -330 -435 -1 -132 63 -203 192 -213
90 -6 159 11 229 59 55 36 147 143 137 159 -2 4 -28 10 -57 14 -29 4 -63 10
-75 12 -17 5 -25 -1 -37 -25 -37 -70 -138 -111 -190 -77 -49 32 -41 137 19
256 30 58 104 126 148 134 62 12 117 -26 117 -79 0 -17 36 -19 115 -8 l47 6
-4 48 c-6 56 -42 110 -91 136 -38 19 -164 27 -220 13z"/>
<path d="M1990 1532 c-146 -49 -257 -174 -295 -334 -26 -112 -15 -184 36 -243
44 -50 102 -69 196 -63 96 7 157 32 223 94 54 51 96 111 85 122 -3 4 -36 12
-73 18 l-67 11 -39 -44 c-21 -24 -51 -50 -67 -58 -72 -38 -139 0 -139 77 0 52
36 157 73 215 72 114 220 133 242 32 7 -32 25 -35 120 -22 l47 6 -5 44 c-6 57
-46 115 -94 139 -54 26 -172 29 -243 6z"/>
<path d="M3937 1539 c-42 -10 -89 -32 -129 -62 -28 -21 -84 -94 -77 -101 2 -2
39 -6 81 -10 71 -6 78 -5 88 14 25 48 127 67 170 32 19 -15 22 -25 16 -53 -3
-19 -10 -40 -14 -46 -5 -8 -60 -19 -136 -28 -70 -8 -145 -20 -167 -26 -52 -16
-117 -73 -140 -123 -25 -56 -25 -141 1 -184 50 -82 187 -82 301 -1 l29 20 0
-35 0 -36 79 0 78 0 6 59 c6 56 18 94 96 311 19 54 31 104 31 139 0 47 -4 57
-33 86 -18 18 -51 38 -72 44 -47 13 -154 13 -208 0z m83 -354 c0 -27 -48 -112
-76 -134 -55 -44 -144 -49 -164 -11 -33 62 10 112 113 134 40 8 81 17 92 19
11 3 23 5 28 6 4 0 7 -6 7 -14z"/>
<path d="M2456 1522 c-7 -11 -104 -274 -137 -371 -45 -131 -38 -203 23 -242
27 -17 45 -20 103 -16 71 4 127 24 194 68 30 20 34 21 28 5 -4 -10 -10 -29
-13 -42 l-6 -25 77 3 78 3 108 295 c60 162 112 303 115 313 5 15 -3 17 -79 17
l-84 0 -53 -147 c-29 -82 -63 -171 -76 -199 -42 -97 -133 -174 -207 -174 -36
0 -67 25 -67 53 0 9 36 114 80 233 44 120 80 221 80 226 0 10 -157 11 -164 0z"/>
<path d="M175 582 c-3 -3 -5 -41 -5 -84 l0 -78 -50 0 c-43 0 -50 -3 -50 -20 0
-12 7 -21 18 -22 9 0 22 -2 27 -3 6 -2 16 -3 23 -4 18 -2 16 -10 -32 -94 l-44
-77 21 -15 c21 -15 23 -14 52 47 l30 63 3 -102 c3 -102 3 -103 27 -103 l25 0
0 112 0 112 31 -42 c26 -35 34 -40 50 -32 24 14 24 22 -2 46 -12 10 -30 32
-41 48 -23 31 -13 48 24 41 13 -3 18 2 18 21 0 21 -4 24 -41 24 l-41 0 4 79
c3 76 2 80 -19 84 -13 2 -25 2 -28 -1z"/>
<path d="M462 582 c-7 -2 -12 -13 -12 -24 0 -18 -5 -20 -62 -16 -53 2 -63 0
-66 -14 -3 -16 5 -18 62 -18 58 0 66 -2 66 -19 0 -14 -8 -18 -32 -18 -67 -1
-78 -3 -78 -18 0 -12 13 -15 55 -15 42 0 55 -3 55 -15 0 -12 -14 -15 -64 -15
-60 0 -76 -8 -76 -36 0 -2 77 -4 170 -4 163 0 170 1 170 20 0 18 -7 20 -70 20
-56 0 -70 3 -70 15 0 12 13 15 61 15 51 0 60 3 57 17 -2 12 -15 16 -58 17 -44
1 -55 5 -58 19 -3 15 5 17 62 17 50 0 66 3 66 14 0 19 -15 23 -78 21 -47 -2
-53 0 -49 16 5 17 -25 30 -51 21z"/>
<path d="M883 570 c-5 -18 -14 -20 -84 -20 -63 0 -79 -3 -79 -15 0 -11 18 -15
83 -17 59 -2 81 -6 80 -15 -2 -8 8 -13 27 -13 20 0 30 5 30 15 0 12 15 15 75
15 60 0 75 -3 75 -15 0 -10 10 -15 30 -15 20 0 30 5 30 15 0 12 15 15 76 15
64 0 75 2 72 16 -2 13 -17 17 -76 17 -66 0 -73 2 -69 19 4 15 -1 18 -29 18
-27 0 -34 -4 -34 -19 0 -17 -9 -19 -76 -20 -72 -1 -76 0 -71 19 4 17 0 20 -25
20 -21 0 -31 -6 -35 -20z"/>
<path d="M2144 531 c-16 -31 -52 -85 -81 -121 -49 -60 -51 -66 -36 -82 16 -18
18 -17 44 8 15 14 29 22 32 17 2 -4 5 -62 5 -128 1 -66 1 -123 1 -127 1 -5 12
-8 26 -8 l25 0 0 180 0 181 35 55 c19 30 35 56 35 58 0 2 -13 8 -28 14 -27 9
-29 7 -58 -47z"/>
<path d="M2903 555 c-20 -42 -33 -46 -138 -43 -76 3 -80 2 -83 -19 -3 -22 -1
-23 84 -23 l88 0 -49 -50 c-27 -28 -69 -60 -92 -71 -37 -18 -41 -23 -33 -39
17 -31 25 -31 75 1 33 21 50 27 55 19 4 -7 7 -63 6 -126 l-2 -114 28 0 c27 0
28 2 28 50 l0 50 120 0 c98 0 122 -3 126 -15 9 -22 -14 -45 -43 -45 -18 0 -24
-5 -21 -17 3 -14 13 -18 45 -17 70 1 73 7 73 170 l0 144 -146 0 -145 0 18 30
17 30 169 0 c167 0 168 0 165 21 -3 21 -8 22 -150 23 -153 1 -167 5 -132 40
14 15 13 17 -11 26 -35 13 -33 15 -52 -25z m217 -210 l0 -25 -125 0 -125 0 0
25 0 25 125 0 125 0 0 -25z m-2 -92 c3 -17 -2 -23 -15 -23 -10 0 -66 -2 -125
-3 l-108 -3 0 28 0 29 123 -3 c118 -3 122 -4 125 -25z"/>
<path d="M3433 572 l-83 -3 0 -244 0 -245 25 0 25 0 0 225 0 225 45 0 c25 0
45 -3 45 -7 0 -5 -12 -30 -25 -58 -14 -27 -25 -55 -25 -61 0 -6 14 -28 30 -49
17 -21 30 -49 30 -62 0 -29 -42 -73 -69 -73 -18 0 -19 -3 -9 -25 13 -29 17
-30 62 -11 72 30 88 112 36 182 l-29 41 35 66 c49 92 38 104 -93 99z"/>
<path d="M1408 393 c-3 -137 -8 -189 -22 -227 -15 -40 -15 -50 -4 -57 30 -20
43 -4 64 81 l20 85 35 0 34 0 0 -65 0 -65 -35 -5 -35 -5 22 -22 c18 -18 27
-20 52 -13 17 5 35 11 41 15 6 4 10 87 10 231 l0 224 -89 0 -89 0 -4 -177z
m130 95 c-3 -41 -4 -42 -38 -43 -31 0 -35 3 -38 28 -5 45 4 57 43 57 l36 0 -3
-42z m-10 -87 c7 -1 12 -16 12 -41 l0 -40 -40 0 c-40 0 -40 0 -40 38 0 45 3
50 33 47 12 -1 28 -3 35 -4z"/>
<path d="M1678 513 c-4 -47 -10 -61 -35 -84 l-31 -27 24 -11 c45 -20 94 35 94
104 0 36 0 36 38 33 l37 -3 5 -60 c5 -60 5 -60 43 -69 48 -12 87 1 106 36 17
30 16 32 -15 42 -16 5 -23 2 -27 -14 -3 -14 -13 -20 -31 -20 -25 0 -26 2 -26
65 l0 65 -89 0 -89 0 -4 -57z"/>
<path d="M2352 548 c2 -19 10 -23 40 -24 53 -2 64 -9 71 -42 3 -16 29 -55 57
-85 51 -56 52 -57 80 -42 l29 15 -50 47 c-38 35 -53 59 -65 100 l-15 53 -75 0
c-72 0 -75 -1 -72 -22z"/>
<path d="M3590 361 l0 -208 -30 -6 c-30 -6 -37 -21 -22 -45 6 -9 16 -10 38 -3
16 5 62 19 102 30 56 17 72 26 72 40 0 18 -3 18 -52 5 -29 -7 -54 -14 -55 -14
-2 0 -3 43 -3 95 l0 95 35 0 c20 0 38 -6 40 -12 32 -93 52 -132 87 -175 59
-69 69 -75 98 -53 l24 18 -54 49 -54 50 42 27 c23 14 47 26 53 26 7 0 5 8 -6
20 -23 26 -31 25 -67 -5 -37 -31 -42 -31 -56 0 -22 47 -16 55 38 55 l50 0 0
110 0 110 -140 0 -140 0 0 -209z m226 142 c4 -22 2 -23 -86 -23 -90 0 -90 0
-90 25 l0 26 87 -3 c81 -3 86 -4 89 -25z m-6 -91 l0 -28 -77 2 c-43 2 -81 3
-85 3 -5 1 -8 12 -8 26 0 25 1 25 85 25 l85 0 0 -28z"/>
<path d="M4180 545 c0 -25 1 -25 78 -25 l77 0 18 -49 c12 -36 35 -65 82 -110
36 -33 71 -61 78 -61 7 1 23 7 36 14 24 13 24 13 -33 56 -62 47 -101 103 -111
163 l-7 37 -109 0 -109 0 0 -25z"/>
<path d="M4687 564 c-4 -4 -7 -16 -7 -26 0 -17 13 -18 220 -18 l220 0 0 -174
c0 -96 -3 -181 -6 -190 -4 -11 -19 -16 -49 -16 -38 0 -43 -2 -38 -20 8 -29 19
-33 67 -26 80 12 78 5 79 252 l2 219 -241 3 c-132 1 -243 -1 -247 -4z"/>
<path d="M90 488 c12 -27 26 -44 39 -46 25 -4 26 7 4 53 -12 25 -23 35 -39 35
l-23 0 19 -42z"/>
<path d="M251 508 c-23 -62 -23 -68 -2 -68 14 0 27 13 41 39 17 34 18 40 4 45
-26 10 -34 7 -43 -16z"/>
<path d="M2267 478 c-14 -24 -39 -56 -56 -72 -23 -23 -28 -33 -20 -43 6 -7 20
-13 29 -13 21 0 70 58 96 113 10 20 22 37 28 37 18 0 -17 20 -36 20 -9 0 -27
-19 -41 -42z"/>
<path d="M4096 454 c-18 -33 -47 -69 -73 -89 l-44 -34 25 -17 c25 -16 27 -16
69 19 23 19 58 64 78 100 36 64 36 65 15 71 -37 10 -40 7 -70 -50z"/>
<path d="M951 466 c-9 -11 -6 -18 16 -35 27 -20 27 -20 6 -21 -16 0 -23 -6
-23 -20 0 -17 7 -20 45 -20 25 0 45 -4 45 -9 0 -19 -27 -28 -72 -25 -42 3 -48
0 -48 -17 0 -14 7 -19 28 -19 l27 -1 -30 -26 -30 -26 -3 112 -3 112 -75 -3
-76 -3 -3 -100 c-5 -121 -13 -180 -30 -221 -12 -30 -12 -32 13 -43 31 -15 36
-9 52 71 11 56 13 59 38 56 28 -3 28 -3 23 -71 0 -11 -10 -21 -22 -24 -12 -4
-18 -11 -15 -20 3 -8 6 -17 6 -19 0 -10 48 -2 68 12 19 13 22 24 22 75 0 57 1
59 21 49 17 -10 28 -5 74 29 47 36 61 41 105 41 40 0 56 -5 77 -24 46 -43 70
-51 99 -36 l25 14 -38 20 c-34 18 -35 21 -15 24 14 2 22 10 22 22 0 16 -6 18
-39 14 -29 -3 -44 0 -57 13 -17 17 -16 18 27 23 24 3 43 8 42 13 -2 4 -3 12
-3 17 0 6 -12 10 -26 10 l-27 0 27 21 c29 23 33 37 11 45 -22 9 -91 -46 -74
-57 10 -6 3 -9 -19 -9 -35 0 -35 2 -15 58 4 8 -5 12 -26 12 -24 0 -31 -4 -31
-19 0 -33 -11 -51 -32 -51 -16 0 -18 3 -9 13 8 11 2 18 -28 35 -33 19 -40 20
-50 8z m-96 -62 c0 -24 -4 -29 -24 -29 -16 0 -25 6 -27 20 -5 32 4 45 28 41
18 -2 23 -9 23 -32z m271 -45 c7 -12 -15 -31 -28 -23 -4 3 -8 12 -8 20 0 17
26 19 36 3z m-274 -59 c3 -18 0 -31 -9 -34 -23 -9 -39 4 -41 34 -2 26 1 30 22
30 19 0 25 -6 28 -30z"/>
<path d="M4710 440 c0 -19 7 -20 165 -20 158 0 165 1 165 20 0 19 -7 20 -165
20 -158 0 -165 -1 -165 -20z"/>
<path d="M4213 382 c-3 -9 -28 -63 -54 -119 l-49 -103 -50 0 -49 0 11 -31 c8
-24 15 -29 31 -25 11 2 101 13 200 22 l179 18 20 -27 c17 -23 22 -25 44 -15
13 6 24 16 24 21 0 11 -97 132 -128 160 -17 15 -20 15 -41 1 l-23 -16 38 -39
c21 -21 36 -41 33 -43 -9 -9 -219 -19 -219 -11 0 4 24 51 54 105 l53 98 -34
10 c-29 9 -35 8 -40 -6z"/>
<path d="M1748 363 c-110 -3 -118 -5 -118 -23 0 -13 7 -20 18 -20 11 0 23 -12
30 -34 7 -19 24 -51 37 -71 l25 -36 -35 -15 c-20 -8 -49 -17 -66 -21 -28 -5
-29 -7 -13 -24 22 -25 38 -24 103 6 47 22 57 24 75 12 12 -7 40 -21 62 -30 37
-14 44 -14 63 -1 31 22 26 29 -28 43 -71 18 -76 28 -41 82 17 24 30 49 30 56
0 6 7 19 16 28 15 15 15 17 -1 35 -10 11 -23 19 -29 18 -6 -1 -64 -4 -128 -5z
m86 -65 c-10 -35 -45 -79 -58 -75 -15 5 -56 66 -56 83 0 10 16 14 61 14 58 0
60 -1 53 -22z"/>
<path d="M2260 340 c0 -16 7 -20 36 -20 l37 0 -7 -42 c-9 -55 -47 -113 -88
-134 l-32 -17 23 -18 c30 -24 30 -24 72 11 41 33 73 94 84 158 l7 42 50 0 51
0 -8 -72 c-9 -96 -16 -108 -66 -108 l-39 0 16 -25 c18 -27 35 -30 81 -15 41
15 52 44 60 161 l6 99 -142 0 c-134 0 -141 -1 -141 -20z"/>
<path d="M4730 255 l0 -105 26 0 c17 0 28 6 31 19 4 16 15 18 101 17 53 -1
103 0 110 2 8 3 12 30 12 88 l0 84 -140 0 -140 0 0 -105z m225 20 l0 -40 -85
0 -85 0 2 40 c1 22 2 41 2 43 1 2 38 2 84 0 l82 -3 0 -40z"/>
<path d="M340 220 l0 -130 25 0 c23 0 25 4 25 45 l0 45 95 0 c87 0 95 -2 95
-19 0 -20 -18 -31 -51 -31 -17 0 -18 -3 -8 -21 9 -18 17 -20 46 -16 60 10 63
17 63 143 l0 114 -145 0 -145 0 0 -130z m240 75 c0 -12 -17 -15 -95 -15 -78 0
-95 3 -95 15 0 12 17 15 95 15 78 0 95 -3 95 -15z m0 -71 c0 -11 -19 -14 -95
-14 -77 0 -95 3 -95 15 0 11 19 15 88 17 98 3 102 3 102 -18z"/>
<path d="M1080 205 c0 -74 0 -75 -26 -75 -20 0 -25 -4 -20 -16 3 -9 6 -18 6
-20 0 -8 52 -4 71 6 11 6 19 21 19 35 0 14 2 25 5 25 3 0 31 -13 63 -29 50
-25 60 -27 76 -16 16 13 14 15 -26 36 -56 28 -54 26 -34 48 17 19 17 20 -4 31
-19 10 -24 9 -37 -9 -8 -12 -21 -21 -30 -21 -12 0 -15 8 -10 40 5 39 4 40 -24
40 l-29 0 0 -75z"/>
<path d="M985 231 c-3 -5 9 -17 26 -25 25 -12 35 -13 46 -4 12 10 11 14 -9 24
-27 16 -55 18 -63 5z"/>
<path d="M995 163 c-27 -9 -56 -17 -64 -20 -12 -3 -12 -6 2 -20 15 -15 21 -15
77 8 33 13 60 29 60 36 0 16 -11 15 -75 -4z"/>
</g>
</svg>
